<?xml version="1.0" encoding="utf-8"?>
<!-- Generator: Adobe Illustrator 25.3.1, SVG Export Plug-In . SVG Version: 6.00 Build 0)  -->
<svg version="1.1" id="Capa_1" xmlns="http://www.w3.org/2000/svg" xmlns:xlink="http://www.w3.org/1999/xlink" x="0px" y="0px"
	 viewBox="0 0 497.6 416.1" style="enable-background:new 0 0 497.6 416.1;" xml:space="preserve">
<style type="text/css">
	.st0{fill:none;stroke:#95C11F;stroke-width:0.5;stroke-miterlimit:10;stroke-dasharray:0.9817,0.9817;}
	.st1{fill:#95C11F;}
	.st2{fill:#FFFFFF;}
	.st3{fill:#575756;}
	.st4{fill:none;stroke:#575756;stroke-linecap:round;stroke-miterlimit:10;stroke-dasharray:0,2.8346;}
	.st5{fill:none;}
	.st6{fill:#1E1E1C;}
	.st7{font-family:'Roboto-Black';}
	.st8{font-size:4px;}
	.st9{fill:none;stroke:#95C11F;stroke-width:0.5;stroke-miterlimit:10;}
</style>
<image style="overflow:visible;enable-background:new    ;" width="4198" height="3468" xlink:href="5849EF1B688E228.jpg"  transform="matrix(0.1094 0 0 0.1094 20.7757 7.6434)">
</image>
<g>
	<g>
		<line class="st0" x1="198.3" y1="136.8" x2="383" y2="50.6"/>
		<g>
			<polygon class="st1" points="200.1,138.7 195.1,138.3 197.9,134.2 			"/>
		</g>
		<g>
			<polygon class="st1" points="383.4,53.2 386.2,49.1 381.2,48.7 			"/>
		</g>
	</g>
</g>
<rect x="232.9" y="90.2" transform="matrix(0.9168 -0.3993 0.3993 0.9168 -13.3666 123.1962)" class="st2" width="112.2" height="7"/>
<path class="st3" d="M33.9,338.7"/>
<path class="st4" d="M405.4,246.4"/>
<g>
	<rect x="35.1" y="367.5" class="st5" width="81.8" height="27.1"/>
	<text transform="matrix(1 0 0 1 42.3153 372.7773)" class="st6 st7 st8">Mechón de pelo en área </text>
	<text transform="matrix(1 0 0 1 38.5053 381.7773)" class="st6 st7 st8">genital sólo presente en el </text>
	<text transform="matrix(1 0 0 1 66.2053 390.7773)" class="st6 st7 st8">macho </text>
</g>
<g>
	<rect x="121.7" y="368.9" class="st5" width="84" height="20.2"/>
	<text transform="matrix(1 0 0 1 124.5495 374.1635)" class="st6 st7 st8">Generalmente la hembra es </text>
	<text transform="matrix(1 0 0 1 124.6695 383.1635)" class="st6 st7 st8">mas pequeña que el macho</text>
</g>
<g>
	<rect x="401.6" y="371.6" class="st5" width="77.8" height="12"/>
	<text transform="matrix(1 0 0 1 416.0016 376.8226)" class="st6 st7 st8">Primates sin cola</text>
</g>
<g>
	<text transform="matrix(0.9168 -0.3993 0.3993 0.9168 241.2162 112.5332)" class="st6 st7 st8">Largo de brazo: hasta 1,5 metros</text>
	<text transform="matrix(0.9168 -0.3993 0.3993 0.9168 244.8097 120.7844)" class="st6 st7 st8">(doble de tamaño que las piernas) </text>
</g>
<g>
	<g>
		<line class="st9" x1="93.4" y1="343.8" x2="74.6" y2="366.9"/>
		<g>
			<path class="st1" d="M92.7,343.2c0.3-0.4,0.9-0.5,1.3-0.1c0.4,0.3,0.5,0.9,0.1,1.3c-0.3,0.4-0.9,0.5-1.3,0.1
				S92.3,343.6,92.7,343.2z"/>
		</g>
	</g>
</g>
<g>
	<g>
		<line class="st9" x1="199.8" y1="330.2" x2="166.4" y2="366.9"/>
		<g>
			<path class="st1" d="M199.1,329.6c0.4-0.4,0.9-0.4,1.3-0.1c0.4,0.4,0.4,0.9,0.1,1.3c-0.4,0.4-0.9,0.4-1.3,0.1
				C198.7,330.6,198.7,330,199.1,329.6z"/>
		</g>
	</g>
</g>
<g>
	<g>
		<line class="st9" x1="373.6" y1="322.9" x2="438" y2="370.9"/>
		<g>
			<path class="st1" d="M373.1,323.7c-0.4-0.3-0.5-0.9-0.2-1.3s0.9-0.5,1.3-0.2s0.5,0.9,0.2,1.3C374.1,323.9,373.5,324,373.1,323.7z
				"/>
		</g>
	</g>
</g>
</svg>
