<?xml version="1.0" encoding="utf-8"?>
<!-- Generator: Adobe Illustrator 25.3.1, SVG Export Plug-In . SVG Version: 6.00 Build 0)  -->
<svg version="1.1" id="Capa_1" xmlns="http://www.w3.org/2000/svg" xmlns:xlink="http://www.w3.org/1999/xlink" x="0px" y="0px"
	 viewBox="0 0 589.8 489.5" style="enable-background:new 0 0 589.8 489.5;" xml:space="preserve">
<style type="text/css">
	.st0{fill:none;stroke:#95C11F;stroke-width:0.5941;stroke-miterlimit:10;stroke-dasharray:1.1664,1.1664;}
	.st1{fill:#95C11F;}
	.st2{fill:#FFFFFF;}
	.st3{fill:#575756;}
	.st4{fill:none;stroke:#575756;stroke-width:1.1881;stroke-linecap:round;stroke-miterlimit:10;stroke-dasharray:0,3.3679;}
	.st5{fill:none;}
	.st6{fill:#1E1E1C;}
	.st7{font-family:'Roboto-Black';}
	.st8{font-size:8px;}
	.st9{fill:none;stroke:#95C11F;stroke-width:0.5941;stroke-miterlimit:10;}
</style>
<image style="overflow:visible;enable-background:new    ;" width="4198" height="3468" xlink:href="5849EF1B688E228.jpg"  transform="matrix(0.13 0 0 0.13 20.7818 8.2377)">
</image>
<g>
	<g>
		<line class="st0" x1="231.8" y1="161.7" x2="451.1" y2="59.3"/>
		<g>
			<polygon class="st1" points="233.8,164 227.9,163.5 231.3,158.6 			"/>
		</g>
		<g>
			<polygon class="st1" points="451.6,62.3 455,57.5 449.1,57 			"/>
		</g>
	</g>
</g>
<rect x="272.8" y="106.3" transform="matrix(0.9168 -0.3993 0.3993 0.9168 -15.8671 144.7411)" class="st2" width="133.3" height="8.3"/>
<path class="st3" d="M36.4,401.6"/>
<path class="st4" d="M477.8,292"/>
<g>
	<rect x="37.8" y="435.8" class="st5" width="97.1" height="32.1"/>
	<text transform="matrix(1 0 0 1 46.3741 442.0589)" class="st6 st7 st8">Mechón de pelo en área </text>
	<text transform="matrix(1 0 0 1 41.8441 452.7489)" class="st6 st7 st8">genital sólo presente en el </text>
	<text transform="matrix(1 0 0 1 74.7641 463.4489)" class="st6 st7 st8">macho </text>
</g>
<g>
	<rect x="140.6" y="437.5" class="st5" width="99.8" height="24"/>
	<text transform="matrix(1 0 0 1 144.0777 443.7063)" class="st6 st7 st8">Generalmente la hembra es </text>
	<text transform="matrix(1 0 0 1 144.2177 454.3963)" class="st6 st7 st8">mas pequeña que el macho</text>
</g>
<g>
	<rect x="473.3" y="440.6" class="st5" width="92.4" height="14.2"/>
	<text transform="matrix(1 0 0 1 490.358 446.8684)" class="st6 st7 st8">Primates sin cola</text>
</g>
<g>
	<text transform="matrix(0.9168 -0.3993 0.3993 0.9168 282.6908 132.8589)" class="st6 st7 st8">Largo de brazo: hasta 1,5 metros</text>
	<text transform="matrix(0.9168 -0.3993 0.3993 0.9168 286.9594 142.6594)" class="st6 st7 st8">(doble de tamaño que las piernas) </text>
</g>
<g>
	<g>
		<line class="st9" x1="107.1" y1="407.6" x2="84.7" y2="435.1"/>
		<g>
			<path class="st1" d="M106.2,406.9c0.4-0.5,1.1-0.5,1.6-0.2c0.5,0.4,0.6,1.1,0.2,1.6s-1.1,0.5-1.6,0.2
				C105.9,408.1,105.8,407.4,106.2,406.9z"/>
		</g>
	</g>
</g>
<g>
	<g>
		<line class="st9" x1="233.4" y1="391.5" x2="193.7" y2="435.1"/>
		<g>
			<path class="st1" d="M232.6,390.8c0.4-0.5,1.1-0.5,1.6-0.1s0.5,1.1,0.1,1.6s-1.1,0.5-1.6,0.1
				C232.2,391.9,232.2,391.2,232.6,390.8z"/>
		</g>
	</g>
</g>
<g>
	<g>
		<line class="st9" x1="440" y1="382.8" x2="516.4" y2="439.8"/>
		<g>
			<path class="st1" d="M439.4,383.7c-0.5-0.4-0.6-1.1-0.2-1.6s1.1-0.6,1.6-0.2s0.6,1.1,0.2,1.6C440.6,384,439.9,384.1,439.4,383.7z
				"/>
		</g>
	</g>
</g>
</svg>
